<svg width="48" height="47" viewBox="0 0 48 47" fill="none" xmlns="http://www.w3.org/2000/svg">
<path d="M46.4306 7.80537C46.4092 7.45675 46.2538 7.12775 45.9938 6.88082C45.7339 6.63389 45.3876 6.48623 45.0206 6.46587C35.3156 5.93149 27.5231 8.73518 24.1744 13.9863C21.9619 17.458 21.9656 21.6742 24.1444 25.6962C22.9042 27.0987 21.9979 28.7393 21.4875 30.5056L18.4369 27.5968C19.9031 24.6881 19.8469 21.6564 18.2494 19.1377C15.7744 15.2563 10.0612 13.1758 2.96812 13.5713C2.60115 13.5916 2.25483 13.7393 1.99491 13.9862C1.73498 14.2332 1.57955 14.5622 1.55812 14.9108C1.13999 21.6492 3.33187 27.0767 7.4175 29.428C8.76574 30.2105 10.315 30.6247 11.895 30.625C13.4286 30.607 14.9383 30.2619 16.3125 29.615L21 34.0681V39.175C21 39.5529 21.158 39.9154 21.4393 40.1826C21.7206 40.4498 22.1022 40.6 22.5 40.6C22.8978 40.6 23.2794 40.4498 23.5607 40.1826C23.842 39.9154 24 39.5529 24 39.175V33.9221C23.9933 31.6551 24.8054 29.4545 26.3006 27.6877C28.2299 28.6455 30.3696 29.1581 32.5462 29.1839C34.6507 29.1904 36.7161 28.6442 38.5144 27.6057C44.0419 24.428 47.0006 17.0251 46.4306 7.80537ZM8.96437 26.9912C6.08812 25.3364 4.46062 21.4195 4.49999 16.375C9.81 16.3322 13.9331 17.8837 15.675 20.6161C16.5844 22.0411 16.7325 23.703 16.1362 25.4148L11.5594 21.0668C11.2758 20.8108 10.8982 20.6702 10.507 20.675C10.1159 20.6797 9.74216 20.8295 9.46555 21.0922C9.18895 21.355 9.03134 21.71 9.02634 22.0816C9.02133 22.4532 9.16932 22.812 9.43875 23.0814L14.0156 27.4294C12.2137 27.9958 10.4662 27.8551 8.96437 26.9912ZM36.96 25.1708C34.4475 26.6154 31.4944 26.7258 28.4944 25.527L38.5612 15.9617C38.8307 15.6923 38.9787 15.3336 38.9737 14.962C38.9686 14.5904 38.811 14.2354 38.5344 13.9726C38.2578 13.7098 37.8841 13.5601 37.493 13.5553C37.1018 13.5506 36.7242 13.6912 36.4406 13.9471L26.3719 23.5C25.1044 20.65 25.2187 17.8427 26.7469 15.4576C29.3606 11.3607 35.5594 9.07718 43.4962 9.25353C43.6762 16.7918 41.2762 22.6877 36.96 25.1708Z" fill="#354F38"/>
</svg>
